<?xml version="1.0" encoding="iso-8859-1"?>
<!-- Generator: Adobe Illustrator 19.0.0, SVG Export Plug-In . SVG Version: 6.00 Build 0)  -->
<svg version="1.1" id="Capa_1" xmlns="http://www.w3.org/2000/svg" xmlns:xlink="http://www.w3.org/1999/xlink" x="0px" y="0px"
	 viewBox="0 0 58 58" style="enable-background:new 0 0 58 58;" xml:space="preserve">
<g>
	<path d="M25.051,47H33V26h8v-8h-8v-8h-8v8h-8v8h8.002L25.051,47z M19,20h8v-8h4v8h8v4h-8v21h-3.953l-0.049-21H19V20z"/>
	<path d="M49.996,6.982c-0.002-0.114-0.027-0.224-0.067-0.33c-0.014-0.038-0.034-0.071-0.052-0.106
		c-0.036-0.069-0.078-0.133-0.13-0.193c-0.029-0.034-0.058-0.065-0.092-0.094C49.636,6.24,49.622,6.217,49.6,6.2
		c-0.698-0.524-1.1-1.326-1.1-2.2s0.401-1.676,1.1-2.2c0.345-0.258,0.485-0.708,0.349-1.116C49.812,0.275,49.431,0,49,0H12
		C9.794,0,8,1.794,8,4c0,0.224,0.031,0.439,0.066,0.653C8.025,4.763,8,4.879,8,5v40.831C8,48.681,10.318,51,13.169,51H15v6
		c0,0.404,0.243,0.769,0.617,0.924c0.374,0.154,0.804,0.069,1.09-0.217l3.038-3.038c0.141-0.141,0.369-0.141,0.51,0l3.038,3.038
		C23.484,57.898,23.74,58,24,58c0.129,0,0.259-0.025,0.383-0.076C24.757,57.769,25,57.404,25,57v-6h24c0.553,0,1-0.448,1-1V7
		C50,6.994,49.996,6.988,49.996,6.982z M12,2h34.937c-0.147,0.318-0.255,0.653-0.329,1H40c-0.553,0-1,0.448-1,1s0.447,1,1,1h6.608
		c0.073,0.347,0.182,0.682,0.329,1H12c-0.133,0-0.262-0.014-0.388-0.039c-0.065-0.013-0.124-0.036-0.185-0.055
		c-0.051-0.016-0.104-0.028-0.153-0.048c-0.101-0.041-0.197-0.089-0.288-0.144c-0.001-0.001-0.002-0.001-0.003-0.002
		c-0.091-0.056-0.177-0.118-0.258-0.185c-0.006-0.005-0.012-0.01-0.018-0.015c-0.059-0.049-0.112-0.102-0.166-0.155
		C10.208,5,10,4.525,10,4C10,2.897,10.897,2,12,2z M23,54.586l-1.331-1.331c-0.46-0.46-1.064-0.69-1.669-0.69
		s-1.209,0.23-1.669,0.69L17,54.586V51h6V54.586z M48,49H24h-8h-2.831C11.422,49,10,47.578,10,45.831V7.459
		c0.138,0.082,0.28,0.152,0.424,0.215c0.008,0.004,0.016,0.009,0.024,0.012c0.222,0.096,0.453,0.163,0.689,0.214
		c0.041,0.009,0.082,0.017,0.123,0.024C11.501,7.97,11.745,8,12,8h36V49z"/>
</g>
<g>
</g>
<g>
</g>
<g>
</g>
<g>
</g>
<g>
</g>
<g>
</g>
<g>
</g>
<g>
</g>
<g>
</g>
<g>
</g>
<g>
</g>
<g>
</g>
<g>
</g>
<g>
</g>
<g>
</g>
</svg>
